<svg xmlns="http://www.w3.org/2000/svg" width="700" height="380" viewBox="0 0 700 380">
  <defs>
    <filter id="g2"><feGaussianBlur stdDeviation="2" result="b"/><feMerge><feMergeNode in="b"/><feMergeNode in="SourceGraphic"/></feMerge></filter>
    <filter id="sg2"><feGaussianBlur stdDeviation="0.8" result="b"/><feMerge><feMergeNode in="b"/><feMergeNode in="SourceGraphic"/></feMerge></filter>
    <pattern id="sl2" width="700" height="4" patternUnits="userSpaceOnUse"><rect width="700" height="2" fill="#00FF41"/></pattern>
  </defs>

  <rect width="700" height="380" rx="12" fill="#0a0e14"/>
  <rect x="1" y="1" width="698" height="378" rx="12" fill="none" stroke="#00FF41" stroke-width="1.5" opacity="0.4"/>
  <rect x="0" y="0" width="700" height="380" rx="12" fill="url(#sl2)" opacity="0.02"/>
  <path d="M16,6 L6,6 L6,16" fill="none" stroke="#00FF41" stroke-width="1.5" opacity="0.5"/>
  <path d="M684,6 L694,6 L694,16" fill="none" stroke="#00FF41" stroke-width="1.5" opacity="0.5"/>
  <path d="M16,374 L6,374 L6,364" fill="none" stroke="#00FF41" stroke-width="1.5" opacity="0.5"/>
  <path d="M684,374 L694,374 L694,364" fill="none" stroke="#00FF41" stroke-width="1.5" opacity="0.5"/>

  <!-- Top bar -->
  <rect x="16" y="16" width="668" height="28" rx="4" fill="#00FF41" opacity="0.08"/>
  <circle cx="32" cy="30" r="4" fill="#00FF41" opacity="0.6"/>
  <circle cx="46" cy="30" r="4" fill="#00FF41" opacity="0.35"/>
  <circle cx="60" cy="30" r="4" fill="#00FF41" opacity="0.15"/>
  <text x="82" y="35" font-family="'Courier New', monospace" font-size="12" fill="#00FF41" opacity="0.6">root@howlonely:~#</text>
  <text x="230" y="35" font-family="'Courier New', monospace" font-size="12" fill="#00FF41" filter="url(#sg2)">cat /dev/control-flota.conf</text>

  <!-- Title -->
  <text x="30" y="76" font-family="'Courier New', monospace" font-size="20" fill="#00FF41" filter="url(#g2)" font-weight="bold">▸ Control Flota</text>
  <circle cx="555" cy="72" r="4" fill="#FFAA00" opacity="0.7"><animate attributeName="opacity" values="0.7;0.3;0.7" dur="2.5s" repeatCount="indefinite"/></circle>
  <text x="565" y="76" font-family="'Courier New', monospace" font-size="10" fill="#FFAA00" opacity="0.5">IN DEVELOPMENT</text>
  <text x="30" y="94" font-family="'Courier New', monospace" font-size="10" fill="#00FF41" opacity="0.35">Full stack fleet management system — personal project · Decoupled REST API + SPA</text>

  <!-- Stack -->
  <text x="30" y="116" font-family="'Courier New', monospace" font-size="9" fill="#00FF41" opacity="0.3">BACKEND</text>
  <text x="90" y="116" font-family="'Courier New', monospace" font-size="9" fill="#00FF41" opacity="0.5">Python · Django · DRF · JWT</text>
  <text x="340" y="116" font-family="'Courier New', monospace" font-size="9" fill="#00FF41" opacity="0.3">FRONTEND</text>
  <text x="405" y="116" font-family="'Courier New', monospace" font-size="9" fill="#00FF41" opacity="0.5">TypeScript · Next.js · Mantine</text>

  <line x1="30" y1="128" x2="670" y2="128" stroke="#00FF41" stroke-width="0.5" opacity="0.12"/>

  <!-- Fleet -->
  <text x="30" y="148" font-family="'Courier New', monospace" font-size="11" fill="#00FF41" filter="url(#sg2)" font-weight="bold">🚗 Fleet Management</text>
  <text x="45" y="166" font-family="'Courier New', monospace" font-size="9" fill="#00FF41" opacity="0.5">▸ Vehicle registry: plate, VIN, mileage, type, status tracking, QR generation</text>
  <text x="45" y="181" font-family="'Courier New', monospace" font-size="9" fill="#00FF41" opacity="0.5">▸ Driver assignment with license validation · Entry/exit log with mileage</text>

  <line x1="30" y1="193" x2="670" y2="193" stroke="#00FF41" stroke-width="0.3" opacity="0.08"/>

  <!-- Checklists -->
  <text x="30" y="211" font-family="'Courier New', monospace" font-size="11" fill="#00FF41" filter="url(#sg2)" font-weight="bold">📋 Inspection Checklists</text>
  <text x="45" y="229" font-family="'Courier New', monospace" font-size="9" fill="#00FF41" opacity="0.5">▸ Template-based per vehicle type · Pass/fail items with mandatory photos</text>
  <text x="45" y="244" font-family="'Courier New', monospace" font-size="9" fill="#00FF41" opacity="0.5">▸ Approval workflow: Pending → Approved / Rejected with evidence</text>

  <line x1="30" y1="256" x2="670" y2="256" stroke="#00FF41" stroke-width="0.3" opacity="0.08"/>

  <!-- Maintenance pipeline -->
  <text x="30" y="274" font-family="'Courier New', monospace" font-size="11" fill="#00FF41" filter="url(#sg2)" font-weight="bold">🔧 Maintenance</text>

  <rect x="140" y="262" width="75" height="28" rx="3" fill="#00FF41" opacity="0.05"/>
  <rect x="140" y="262" width="75" height="28" rx="3" fill="none" stroke="#00FF41" stroke-width="0.6" opacity="0.2"/>
  <text x="178" y="280" text-anchor="middle" font-family="'Courier New', monospace" font-size="8" fill="#00FF41" opacity="0.6" font-weight="bold">Open OT</text>

  <line x1="215" y1="276" x2="228" y2="276" stroke="#00FF41" stroke-width="0.8" opacity="0.2"/>
  <polygon points="228,273 233,276 228,279" fill="#00FF41" opacity="0.2"/>

  <rect x="235" y="262" width="75" height="28" rx="3" fill="#00FF41" opacity="0.05"/>
  <rect x="235" y="262" width="75" height="28" rx="3" fill="none" stroke="#00FF41" stroke-width="0.6" opacity="0.2"/>
  <text x="273" y="280" text-anchor="middle" font-family="'Courier New', monospace" font-size="8" fill="#00FF41" opacity="0.6" font-weight="bold">Assign Shop</text>

  <line x1="310" y1="276" x2="323" y2="276" stroke="#00FF41" stroke-width="0.8" opacity="0.2"/>
  <polygon points="323,273 328,276 323,279" fill="#00FF41" opacity="0.2"/>

  <rect x="330" y="262" width="75" height="28" rx="3" fill="#00FF41" opacity="0.05"/>
  <rect x="330" y="262" width="75" height="28" rx="3" fill="none" stroke="#00FF41" stroke-width="0.6" opacity="0.2"/>
  <text x="368" y="280" text-anchor="middle" font-family="'Courier New', monospace" font-size="8" fill="#00FF41" opacity="0.6" font-weight="bold">In Progress</text>

  <line x1="405" y1="276" x2="418" y2="276" stroke="#00FF41" stroke-width="0.8" opacity="0.2"/>
  <polygon points="418,273 423,276 418,279" fill="#00FF41" opacity="0.2"/>

  <rect x="425" y="262" width="75" height="28" rx="3" fill="#00FF41" opacity="0.05"/>
  <rect x="425" y="262" width="75" height="28" rx="3" fill="none" stroke="#00FF41" stroke-width="0.6" opacity="0.2"/>
  <text x="463" y="280" text-anchor="middle" font-family="'Courier New', monospace" font-size="8" fill="#00FF41" opacity="0.6" font-weight="bold">Close OT</text>

  <text x="45" y="306" font-family="'Courier New', monospace" font-size="9" fill="#00FF41" opacity="0.5">▸ Preventive, corrective, emergency · Scheduled programs by km or time</text>
  <text x="45" y="321" font-family="'Courier New', monospace" font-size="9" fill="#00FF41" opacity="0.45">▸ Provider registry · Cost tracking · Invoice attachments</text>

  <line x1="30" y1="333" x2="670" y2="333" stroke="#00FF41" stroke-width="0.3" opacity="0.08"/>

  <!-- Documents & Workers -->
  <text x="30" y="351" font-family="'Courier New', monospace" font-size="11" fill="#00FF41" filter="url(#sg2)" font-weight="bold">📄 Documents &amp; Workers</text>
  <text x="215" y="351" font-family="'Courier New', monospace" font-size="9" fill="#00FF41" opacity="0.4">Expiration tracking · License validation · Role-based access (Admin/Fleet Mgr/Driver)</text>

  <text x="30" y="370" font-family="'Courier New', monospace" font-size="8" fill="#00FF41" opacity="0.15">▸ personal project — open source</text>
</svg>
